<?xml version="1.0" encoding="UTF-8" standalone="no"?>
<svg
   xmlns:dc="http://purl.org/dc/elements/1.1/"
   xmlns:cc="http://creativecommons.org/ns#"
   xmlns:rdf="http://www.w3.org/1999/02/22-rdf-syntax-ns#"
   xmlns:svg="http://www.w3.org/2000/svg"
   xmlns="http://www.w3.org/2000/svg"
   viewBox="0 0 1133.8586 377.95334"
   height="377.95334"
   width="1133.8586"
   xml:space="preserve"
   id="svg2"
   version="1.1"><metadata
     id="metadata8"><rdf:RDF><cc:Work
         rdf:about=""><dc:format>image/svg+xml</dc:format><dc:type
           rdf:resource="http://purl.org/dc/dcmitype/StillImage" /></cc:Work></rdf:RDF></metadata><defs
     id="defs6"><clipPath
       id="clipPath18"
       clipPathUnits="userSpaceOnUse"><path
         id="path16"
         d="M 0,283.465 H 850.394 V 0 H 0 Z" /></clipPath></defs><g
     transform="matrix(1.3333333,0,0,-1.3333333,0,377.95333)"
     id="g10"><g
       id="g12"><g
         clip-path="url(#clipPath18)"
         id="g14"><g
           transform="translate(195.6055,164.4409)"
           id="g20"><path
             id="path22"
             style="fill:#dd6fbe;fill-opacity:1;fill-rule:nonzero;stroke:none"
             d="m 0,0 -2.833,-24.571 c -0.637,-5.532 -0.566,-9.155 0.212,-10.873 0.959,-2.027 3.331,-3.259 7.114,-3.694 4.068,-0.469 7.383,0.052 9.944,1.565 2.561,1.513 4.522,4.108 5.887,7.783 0.803,2.258 2.149,3.279 4.042,3.061 1.891,-0.219 3.336,-1.244 4.337,-3.077 1,-1.833 1.344,-4.106 1.031,-6.818 -0.51,-4.425 -2.697,-8.964 -6.56,-13.618 -1.221,-1.486 -2.257,-2.478 -3.11,-2.977 -0.853,-0.498 -1.833,-0.684 -2.939,-0.557 l -11.717,2.816 -37.418,4.313 c -2.463,0.283 -4.161,0.769 -5.094,1.455 -1.369,0.989 -1.958,2.305 -1.769,3.946 0.115,0.999 0.442,1.712 0.978,2.139 0.539,0.426 1.786,0.979 3.745,1.656 2.145,0.73 3.604,1.936 4.377,3.618 0.631,1.41 1.356,5.648 2.17,12.714 0.378,3.284 0.834,8.022 1.368,14.217 0.503,5.944 0.91,10.418 1.221,13.42 0.329,2.855 0.331,4.834 0.006,5.939 -0.325,1.103 -1.174,1.97 -2.548,2.599 -2.26,1.091 -3.683,1.924 -4.268,2.498 -1.04,1.024 -1.493,2.107 -1.361,3.249 0.3,2.605 2.687,4.337 7.162,5.196 3.811,0.753 8.804,0.775 14.978,0.063 6.923,-0.798 12.057,-1.751 15.401,-2.86 4.313,-1.473 6.305,-3.656 5.971,-6.547 C 10.191,15.478 9.796,14.637 9.142,14.134 8.487,13.631 6.961,13.029 4.567,12.329 3.14,11.878 2.165,10.942 1.64,9.521 1.114,8.098 0.567,4.925 0,0" /></g><g
           transform="translate(630.2686,130.4794)"
           id="g24"><path
             id="path26"
             style="fill:#dd6fbe;fill-opacity:1;fill-rule:nonzero;stroke:none"
             d="m 0,0 10.482,1.285 c 1.926,0.236 2.836,0.782 2.732,1.639 -0.145,1.177 -1.836,3.9 -5.075,8.172 -1.47,1.955 -2.571,3.249 -3.3,3.884 C 4.11,15.614 3.389,15.888 2.677,15.8 1.393,15.643 0.47,14.316 -0.093,11.823 -0.197,11.485 -0.559,10.155 -1.179,7.836 -2.23,4.015 -2.712,1.748 -2.625,1.035 -2.516,0.144 -1.641,-0.202 0,0 M 36.398,11.305 49.165,-9.116 c 1.206,-1.88 2.17,-3.091 2.888,-3.636 0.718,-0.546 1.751,-0.844 3.096,-0.896 2.616,-0.079 4.059,-1.221 4.33,-3.432 0.32,-2.604 -1.021,-4.668 -4.017,-6.193 -2.999,-1.526 -8.064,-2.727 -15.194,-3.601 -8.059,-0.989 -14.074,-1.382 -18.042,-1.183 -1.823,0.103 -3.321,0.579 -4.492,1.432 -1.172,0.851 -1.843,1.972 -2.013,3.362 -0.132,1.071 0.042,1.933 0.523,2.589 0.481,0.656 1.439,1.325 2.875,2.009 1.606,0.775 2.326,1.841 2.16,3.196 -0.293,2.389 -1.911,3.62 -4.851,3.695 -3.155,0.046 -7.549,-0.275 -13.183,-0.966 -4.742,-0.582 -7.542,-1.216 -8.398,-1.9 -0.528,-0.426 -0.948,-1.129 -1.262,-2.108 -0.314,-0.981 -0.419,-1.898 -0.314,-2.753 0.096,-0.785 0.31,-1.274 0.642,-1.469 0.331,-0.195 1.367,-0.457 3.109,-0.786 2.253,-0.375 3.499,-1.525 3.736,-3.45 0.52,-4.244 -4.301,-6.988 -14.463,-8.235 -5.776,-0.708 -10.068,-0.836 -12.874,-0.385 -2.588,0.443 -4.037,1.93 -4.348,4.462 -0.135,1.104 0.035,1.994 0.515,2.669 0.477,0.674 1.399,1.346 2.765,2.021 2.216,1.105 3.831,2.47 4.844,4.097 1.014,1.626 2.327,4.999 3.945,10.12 l 5.513,17.452 c 2.037,6.402 3.344,11.168 3.919,14.297 0.575,3.128 0.703,6.14 0.385,9.032 -0.341,3.071 -0.415,5.224 -0.222,6.46 0.193,1.237 0.807,2.497 1.843,3.782 2.155,2.798 5.139,4.431 8.954,4.899 3.602,0.442 7.215,-0.545 10.841,-2.959 5.036,-3.291 13.044,-13.692 24.023,-31.201" /></g><g
           transform="translate(195.6055,164.4409)"
           id="g28"><path
             id="path30"
             style="fill:#dd6fbe;fill-opacity:1;fill-rule:nonzero;stroke:none"
             d="m 0,0 -2.833,-24.571 c -0.637,-5.532 -0.566,-9.155 0.212,-10.873 0.959,-2.027 3.331,-3.259 7.114,-3.694 4.068,-0.469 7.383,0.052 9.944,1.565 2.561,1.513 4.522,4.108 5.887,7.783 0.803,2.258 2.149,3.279 4.042,3.061 1.891,-0.219 3.336,-1.244 4.337,-3.077 1,-1.833 1.344,-4.106 1.031,-6.818 -0.51,-4.425 -2.697,-8.964 -6.56,-13.618 -1.221,-1.486 -2.257,-2.478 -3.11,-2.977 -0.853,-0.498 -1.833,-0.684 -2.939,-0.557 l -11.717,2.816 -37.418,4.313 c -2.463,0.283 -4.161,0.769 -5.094,1.455 -1.369,0.989 -1.958,2.305 -1.769,3.946 0.115,0.999 0.442,1.712 0.978,2.139 0.539,0.426 1.786,0.979 3.745,1.656 2.145,0.73 3.604,1.936 4.377,3.618 0.631,1.41 1.356,5.648 2.17,12.714 0.378,3.284 0.834,8.022 1.368,14.217 0.503,5.944 0.91,10.418 1.221,13.42 0.329,2.855 0.331,4.834 0.006,5.939 -0.325,1.103 -1.174,1.97 -2.548,2.599 -2.26,1.091 -3.683,1.924 -4.268,2.498 -1.04,1.024 -1.493,2.107 -1.361,3.249 0.3,2.605 2.687,4.337 7.162,5.196 3.811,0.753 8.804,0.775 14.978,0.063 6.923,-0.798 12.057,-1.751 15.401,-2.86 4.313,-1.473 6.305,-3.656 5.971,-6.547 C 10.191,15.478 9.796,14.637 9.142,14.134 8.487,13.631 6.961,13.029 4.567,12.329 3.14,11.878 2.165,10.942 1.64,9.521 1.114,8.098 0.567,4.925 0,0" /></g><g
           transform="translate(255.8413,125.3144)"
           id="g32"><path
             id="path34"
             style="fill:#dd6fbe;fill-opacity:1;fill-rule:nonzero;stroke:none"
             d="m 0,0 h 10.562 c 1.939,0 2.909,0.431 2.909,1.293 0,1.186 -1.347,4.095 -4.041,8.729 -1.222,2.12 -2.156,3.539 -2.802,4.257 -0.647,0.719 -1.33,1.078 -2.048,1.078 -1.293,0 -2.371,-1.204 -3.233,-3.61 C 1.203,11.423 0.682,10.147 -0.216,7.921 -1.725,4.257 -2.479,2.065 -2.479,1.347 -2.479,0.448 -1.653,0 0,0 m 37.504,6.789 10.185,-21.823 c 0.97,-2.013 1.778,-3.333 2.425,-3.961 0.646,-0.629 1.634,-1.051 2.963,-1.267 2.587,-0.395 3.88,-1.706 3.88,-3.933 0,-2.622 -1.582,-4.509 -4.742,-5.659 -3.161,-1.149 -8.334,-1.723 -15.519,-1.723 -8.119,0 -14.136,0.342 -18.051,1.023 -1.797,0.324 -3.225,0.979 -4.284,1.967 -1.061,0.987 -1.59,2.183 -1.59,3.584 0,1.077 0.278,1.913 0.835,2.505 0.557,0.594 1.59,1.141 3.099,1.644 1.688,0.574 2.532,1.543 2.532,2.91 0,2.406 -1.455,3.826 -4.364,4.256 -3.126,0.432 -7.527,0.647 -13.203,0.647 -4.777,0 -7.633,-0.288 -8.567,-0.862 -0.575,-0.36 -1.078,-1.006 -1.509,-1.94 -0.431,-0.934 -0.647,-1.832 -0.647,-2.694 0,-0.79 0.153,-1.303 0.458,-1.535 0.305,-0.235 1.302,-0.62 2.991,-1.159 2.19,-0.647 3.287,-1.94 3.287,-3.88 0,-4.276 -5.119,-6.412 -15.357,-6.412 -5.82,0 -10.096,0.395 -12.826,1.185 -2.514,0.754 -3.771,2.406 -3.771,4.957 0,1.113 0.278,1.976 0.834,2.587 0.558,0.61 1.555,1.167 2.992,1.67 2.335,0.826 4.103,1.985 5.307,3.476 1.203,1.491 2.918,4.679 5.146,9.565 l 7.598,16.65 c 2.802,6.107 4.679,10.678 5.631,13.715 0.952,3.034 1.446,6.008 1.482,8.917 0.035,3.09 0.224,5.236 0.566,6.44 0.341,1.203 1.105,2.379 2.29,3.529 2.479,2.514 5.639,3.772 9.484,3.772 3.628,0 7.094,-1.419 10.4,-4.257 4.598,-3.879 11.28,-15.178 20.045,-33.894" /></g><g
           transform="translate(327.8711,194.9863)"
           id="g36"><path
             id="path38"
             style="fill:#dd6fbe;fill-opacity:1;fill-rule:nonzero;stroke:none"
             d="m 0,0 c 5.204,0.657 10.373,0.15 15.508,-1.518 2.415,-0.781 4.07,-1.115 4.961,-1.003 0.641,0.081 1.655,0.372 3.04,0.873 0.449,0.166 0.959,0.284 1.53,0.356 1.853,0.234 3.583,-0.416 5.189,-1.952 3.943,-3.702 6.302,-8.619 7.077,-14.748 0.544,-4.313 -0.537,-7.654 -3.243,-10.023 -1.469,-1.272 -3.201,-2.034 -5.197,-2.286 -1.818,-0.229 -3.346,-0.024 -4.586,0.616 -1.24,0.639 -2.519,1.89 -3.841,3.751 -1.888,2.622 -3.391,4.488 -4.508,5.595 -1.118,1.109 -2.435,2.074 -3.951,2.896 -3.763,1.987 -7.534,2.742 -11.312,2.265 -3.67,-0.464 -6.417,-2.159 -8.237,-5.087 -1.822,-2.927 -2.451,-6.619 -1.888,-11.073 0.774,-6.131 3.034,-11.549 6.778,-16.253 5.065,-6.278 11.518,-8.92 19.359,-7.93 2.887,0.365 5.686,1.208 8.399,2.527 2.711,1.321 4.754,2.846 6.13,4.577 1.191,1.454 2.215,2.235 3.071,2.343 1.247,0.157 2.389,-0.287 3.427,-1.332 1.037,-1.047 1.66,-2.39 1.866,-4.029 0.261,-2.067 -0.07,-4.462 -0.993,-7.186 -0.924,-2.724 -2.167,-4.927 -3.728,-6.608 -0.672,-0.701 -2.155,-1.431 -4.448,-2.191 -1.324,-0.421 -3.04,-1.308 -5.15,-2.66 -4.956,-3.196 -10.285,-5.155 -15.987,-5.875 -5.953,-0.752 -12.056,-0.165 -18.308,1.761 -7.271,2.232 -13.308,6.303 -18.109,12.215 -4.709,5.742 -7.492,12.016 -8.351,18.824 -1,7.912 0.548,15.44 4.643,22.584 3.561,6.207 8.592,11.241 15.092,15.104 C -10.815,-2.525 -5.56,-0.702 0,0" /></g><g
           transform="translate(403.4238,161.8461)"
           id="g40"><path
             id="path42"
             style="fill:#dd6fbe;fill-opacity:1;fill-rule:nonzero;stroke:none"
             d="m 0,0 -0.593,-12.555 v -0.485 c 0,-1.293 0.189,-2.155 0.566,-2.586 0.378,-0.432 1.14,-0.647 2.29,-0.647 3.161,0 5.46,0.816 6.898,2.451 1.436,1.634 2.155,4.248 2.155,7.841 0,6.933 -2.461,10.4 -7.382,10.4 C 2.533,4.419 1.544,4.096 0.97,3.449 0.395,2.802 0.072,1.652 0,0 m 3.125,-27.482 c -1.366,0 -2.236,-0.413 -2.613,-1.239 -0.377,-0.826 -0.566,-2.748 -0.566,-5.766 0,-4.562 0.287,-8.119 0.862,-10.669 0.18,-0.719 0.449,-1.275 0.809,-1.671 0.358,-0.395 1.041,-0.881 2.047,-1.455 2.155,-1.185 3.233,-2.748 3.233,-4.687 0,-2.371 -1.5,-4.051 -4.499,-5.039 -3,-0.988 -8.075,-1.482 -15.223,-1.482 -13.292,0 -19.938,2.515 -19.938,7.544 0,0.863 0.198,1.554 0.593,2.075 0.395,0.521 1.294,1.247 2.694,2.182 1.581,1.042 2.649,2.272 3.207,3.691 0.556,1.419 0.943,3.872 1.158,7.356 0.18,2.551 0.27,11.693 0.27,27.428 0,4.992 -0.252,8.387 -0.755,10.184 -0.504,1.796 -1.581,3.107 -3.233,3.934 -1.581,0.754 -2.64,1.446 -3.179,2.074 -0.539,0.628 -0.808,1.446 -0.808,2.452 0,1.329 0.512,2.487 1.535,3.476 1.024,0.988 2.452,1.715 4.284,2.182 1.544,0.395 3.664,0.593 6.359,0.593 1.185,0 4.149,-0.181 8.891,-0.539 0.897,-0.073 2.317,-0.108 4.257,-0.108 3.233,0 7.544,0.216 12.932,0.647 3.413,0.251 5.801,0.377 7.167,0.377 7.687,0 14.045,-1.85 19.076,-5.55 4.526,-3.341 6.79,-7.975 6.79,-13.903 0,-3.305 -0.791,-6.313 -2.371,-9.025 -1.583,-2.713 -3.754,-4.751 -6.521,-6.117 -1.15,-0.574 -1.725,-1.257 -1.725,-2.047 0,-1.042 0.881,-1.886 2.641,-2.533 3.772,-1.366 6.538,-3.43 8.298,-6.197 1.761,-2.767 3.017,-7.005 3.773,-12.717 0.323,-2.371 0.789,-3.907 1.4,-4.606 0.611,-0.701 2.03,-1.375 4.257,-2.022 0.682,-0.216 1.257,-0.673 1.724,-1.374 0.467,-0.7 0.701,-1.481 0.701,-2.343 0,-1.115 -0.431,-2.237 -1.294,-3.369 -0.862,-1.13 -1.975,-2.02 -3.339,-2.667 -3.018,-1.401 -7.151,-2.101 -12.395,-2.101 -7.005,0 -12.016,1.85 -15.034,5.55 -1.365,1.652 -2.524,3.736 -3.475,6.251 -0.952,2.513 -2.075,6.43 -3.368,11.747 -0.827,3.413 -1.877,5.819 -3.153,7.22 -1.275,1.402 -3.098,2.156 -5.469,2.263" /></g><g
           transform="translate(482.8281,194.1528)"
           id="g44"><path
             id="path46"
             style="fill:#dd6fbe;fill-opacity:1;fill-rule:nonzero;stroke:none"
             d="m 0,0 c 4.072,-0.435 7.873,-1.202 11.405,-2.302 4.754,-1.483 6.964,-3.797 6.629,-6.94 -0.111,-1.036 -0.434,-1.787 -0.972,-2.254 -0.538,-0.466 -1.842,-1.095 -3.913,-1.884 -1.731,-0.647 -3.005,-2.335 -3.82,-5.066 -0.815,-2.731 -1.654,-8.134 -2.517,-16.206 -1.457,-13.645 -2.019,-22.13 -1.687,-25.452 0.138,-1.063 0.437,-1.899 0.897,-2.508 0.458,-0.609 1.297,-1.304 2.514,-2.084 2.243,-1.323 3.255,-3.003 3.038,-5.039 -0.305,-2.858 -2.693,-4.59 -7.166,-5.195 -4.837,-0.64 -10.668,-0.596 -17.49,0.133 -11.645,1.244 -17.23,4.08 -16.758,8.509 0.172,1.608 1.475,2.986 3.91,4.135 1.865,0.885 3.057,2.238 3.577,4.062 1.114,4 2.376,12.608 3.788,25.824 0.976,9.144 1.137,15.053 0.483,17.724 -0.344,1.518 -1.399,2.967 -3.166,4.348 -1.362,1.121 -2.259,2.029 -2.689,2.726 -0.433,0.696 -0.595,1.544 -0.488,2.545 0.164,1.535 1.036,2.68 2.616,3.432 1.58,0.753 4.284,1.285 8.11,1.6 C -9.139,0.523 -4.572,0.488 0,0" /></g><g
           transform="translate(562.7461,141.1958)"
           id="g48"><path
             id="path50"
             style="fill:#dd6fbe;fill-opacity:1;fill-rule:nonzero;stroke:none"
             d="m 0,0 -6.466,-14.496 c -1.114,-2.443 -2.012,-4.087 -2.694,-4.93 -0.684,-0.844 -1.438,-1.266 -2.264,-1.266 -0.79,0 -1.49,0.341 -2.101,1.024 -0.396,0.431 -1.302,2.011 -2.721,4.742 -1.42,2.729 -2.596,5.154 -3.53,7.274 l -7.113,16.004 c -0.969,2.228 -1.994,3.341 -3.071,3.341 -1.15,0 -1.778,-0.952 -1.887,-2.856 -0.251,-4.239 -0.377,-8.155 -0.377,-11.747 0,-3.737 0.18,-6.269 0.539,-7.597 0.251,-0.791 0.584,-1.367 0.998,-1.725 0.412,-0.359 1.536,-1.006 3.367,-1.94 1.186,-0.612 1.779,-1.67 1.779,-3.179 0,-4.024 -5.155,-6.035 -15.465,-6.035 -8.695,0 -13.042,1.958 -13.042,5.873 0,1.006 0.225,1.733 0.674,2.182 0.449,0.45 1.607,1.123 3.477,2.021 1.185,0.539 1.984,1.274 2.397,2.21 0.413,0.933 0.764,2.748 1.051,5.442 0.323,2.873 0.628,7.589 0.917,14.145 0.286,6.555 0.43,12.169 0.43,16.839 0,5.855 -0.45,9.825 -1.347,11.909 -0.323,0.718 -0.693,1.257 -1.105,1.617 -0.413,0.358 -1.195,0.826 -2.343,1.4 -2.551,1.221 -3.827,2.803 -3.827,4.743 0,1.256 0.476,2.406 1.428,3.448 0.951,1.042 2.218,1.778 3.799,2.209 1.58,0.467 3.691,0.871 6.332,1.213 2.641,0.341 4.877,0.512 6.709,0.512 4.598,0 7.849,-0.377 9.753,-1.132 0.933,-0.359 1.671,-0.844 2.209,-1.454 0.539,-0.612 1.311,-1.869 2.317,-3.773 L -9.968,25.38 c 1.22,-2.263 2.065,-3.646 2.532,-4.149 0.467,-0.504 1.114,-0.754 1.94,-0.754 0.718,0 1.355,0.269 1.913,0.808 0.557,0.539 1.212,1.544 1.967,3.017 l 7.598,14.819 c 0.933,1.904 1.543,3.143 1.831,3.718 1.76,3.592 3.503,5.981 5.228,7.167 2.19,1.544 6.178,2.317 11.962,2.317 10.166,0 15.25,-2.317 15.25,-6.951 0,-1.043 -0.198,-1.878 -0.593,-2.506 -0.395,-0.629 -1.204,-1.393 -2.425,-2.29 -1.652,-1.258 -2.694,-3.072 -3.126,-5.443 -0.826,-4.957 -1.239,-10.992 -1.239,-18.105 0,-9.161 0.432,-17.19 1.294,-24.087 0.215,-1.69 0.547,-2.838 0.997,-3.448 0.448,-0.612 1.608,-1.529 3.475,-2.749 1.293,-0.862 1.94,-2.012 1.94,-3.449 0,-2.514 -1.671,-4.293 -5.012,-5.335 -1.723,-0.574 -3.538,-0.951 -5.441,-1.13 -1.905,-0.18 -4.833,-0.27 -8.784,-0.27 -6.071,0 -10.598,0.431 -13.579,1.293 -3.306,0.97 -4.957,2.622 -4.957,4.957 0,0.862 0.215,1.571 0.646,2.129 0.431,0.557 1.544,1.571 3.341,3.045 0.934,0.754 1.57,2.209 1.912,4.364 0.342,2.155 0.513,5.819 0.513,10.993 0,2.874 -0.135,4.76 -0.404,5.658 -0.27,0.897 -0.835,1.347 -1.698,1.347 -1.007,0 -1.976,-0.692 -2.91,-2.075 C 3.27,6.888 1.868,4.13 0,0" /></g><g
           transform="translate(199.5068,158.9043)"
           id="g52"><path
             id="path54"
             style="fill:#ffffff;fill-opacity:1;fill-rule:nonzero;stroke:none"
             d="m 0,0 -2.832,-24.571 c -0.638,-5.533 -0.567,-9.156 0.211,-10.873 0.96,-2.028 3.331,-3.258 7.114,-3.695 4.069,-0.468 7.383,0.053 9.944,1.566 2.561,1.512 4.523,4.107 5.888,7.783 0.802,2.258 2.149,3.278 4.041,3.061 1.891,-0.218 3.337,-1.245 4.337,-3.078 1,-1.833 1.344,-4.105 1.031,-6.817 -0.51,-4.426 -2.696,-8.965 -6.56,-13.618 -1.22,-1.487 -2.257,-2.479 -3.109,-2.978 -0.853,-0.498 -1.834,-0.683 -2.939,-0.555 l -11.717,2.814 -37.419,4.314 c -2.462,0.284 -4.161,0.768 -5.094,1.455 -1.369,0.989 -1.958,2.304 -1.769,3.946 0.116,0.999 0.442,1.712 0.979,2.139 0.538,0.425 1.785,0.978 3.744,1.656 2.145,0.729 3.604,1.935 4.377,3.618 0.632,1.41 1.356,5.647 2.17,12.714 0.379,3.283 0.834,8.021 1.368,14.217 0.504,5.944 0.911,10.418 1.221,13.419 0.329,2.855 0.331,4.835 0.007,5.94 -0.326,1.103 -1.175,1.97 -2.548,2.598 -2.261,1.092 -3.684,1.924 -4.269,2.499 -1.04,1.023 -1.492,2.106 -1.361,3.249 0.3,2.604 2.687,4.336 7.162,5.195 3.811,0.754 8.804,0.775 14.979,0.064 6.923,-0.798 12.056,-1.752 15.4,-2.86 4.313,-1.474 6.305,-3.656 5.972,-6.547 C 10.192,15.478 9.797,14.636 9.142,14.134 8.487,13.631 6.962,13.029 4.567,12.329 3.141,11.878 2.165,10.942 1.64,9.52 1.114,8.098 0.568,4.925 0,0" /></g><g
           transform="translate(199.5068,158.9043)"
           id="g56"><path
             id="path58"
             style="fill:#ffffff;fill-opacity:1;fill-rule:nonzero;stroke:none"
             d="m 0,0 -2.832,-24.571 c -0.638,-5.533 -0.567,-9.156 0.211,-10.873 0.96,-2.028 3.331,-3.258 7.114,-3.695 4.069,-0.468 7.383,0.053 9.944,1.566 2.561,1.512 4.523,4.107 5.888,7.783 0.802,2.258 2.149,3.278 4.041,3.061 1.891,-0.218 3.337,-1.245 4.337,-3.078 1,-1.833 1.344,-4.105 1.031,-6.817 -0.51,-4.426 -2.696,-8.965 -6.56,-13.618 -1.22,-1.487 -2.257,-2.479 -3.109,-2.978 -0.853,-0.498 -1.834,-0.683 -2.939,-0.555 l -11.717,2.814 -37.419,4.314 c -2.462,0.284 -4.161,0.768 -5.094,1.455 -1.369,0.989 -1.958,2.304 -1.769,3.946 0.116,0.999 0.442,1.712 0.979,2.139 0.538,0.425 1.785,0.978 3.744,1.656 2.145,0.729 3.604,1.935 4.377,3.618 0.632,1.41 1.356,5.647 2.17,12.714 0.379,3.283 0.834,8.021 1.368,14.217 0.504,5.944 0.911,10.418 1.221,13.419 0.329,2.855 0.331,4.835 0.007,5.94 -0.326,1.103 -1.175,1.97 -2.548,2.598 -2.261,1.092 -3.684,1.924 -4.269,2.499 -1.04,1.023 -1.492,2.106 -1.361,3.249 0.3,2.604 2.687,4.336 7.162,5.195 3.811,0.754 8.804,0.775 14.979,0.064 6.923,-0.798 12.056,-1.752 15.4,-2.86 4.313,-1.474 6.305,-3.656 5.972,-6.547 C 10.192,15.478 9.797,14.636 9.142,14.134 8.487,13.631 6.962,13.029 4.567,12.329 3.141,11.878 2.165,10.942 1.64,9.52 1.114,8.098 0.568,4.925 0,0" /></g><g
           transform="translate(259.7431,119.7773)"
           id="g60"><path
             id="path62"
             style="fill:#ffffff;fill-opacity:1;fill-rule:nonzero;stroke:none"
             d="m 0,0 h 10.562 c 1.939,0 2.909,0.431 2.909,1.293 0,1.186 -1.347,4.096 -4.041,8.729 -1.222,2.12 -2.156,3.539 -2.802,4.257 -0.647,0.719 -1.33,1.078 -2.048,1.078 -1.293,0 -2.371,-1.204 -3.233,-3.61 C 1.203,11.424 0.682,10.148 -0.216,7.921 -1.725,4.257 -2.479,2.065 -2.479,1.347 -2.479,0.448 -1.653,0 0,0 m 37.504,6.789 10.184,-21.823 c 0.971,-2.013 1.779,-3.333 2.425,-3.961 0.647,-0.629 1.635,-1.051 2.964,-1.267 2.587,-0.395 3.88,-1.706 3.88,-3.933 0,-2.622 -1.582,-4.508 -4.742,-5.658 -3.161,-1.149 -8.335,-1.724 -15.519,-1.724 -8.119,0 -14.137,0.342 -18.052,1.023 -1.797,0.324 -3.225,0.979 -4.284,1.968 -1.06,0.987 -1.589,2.182 -1.589,3.583 0,1.077 0.278,1.913 0.835,2.505 0.557,0.594 1.589,1.141 3.098,1.644 1.689,0.574 2.533,1.544 2.533,2.91 0,2.406 -1.455,3.826 -4.365,4.256 -3.125,0.432 -7.526,0.647 -13.202,0.647 -4.778,0 -7.634,-0.288 -8.567,-0.861 -0.576,-0.36 -1.078,-1.007 -1.509,-1.941 -0.431,-0.934 -0.647,-1.832 -0.647,-2.694 0,-0.79 0.152,-1.303 0.458,-1.535 0.305,-0.235 1.302,-0.62 2.991,-1.159 2.19,-0.647 3.287,-1.94 3.287,-3.88 0,-4.276 -5.12,-6.412 -15.358,-6.412 -5.819,0 -10.095,0.395 -12.824,1.185 -2.515,0.755 -3.772,2.406 -3.772,4.957 0,1.113 0.277,1.976 0.834,2.587 0.557,0.61 1.554,1.167 2.991,1.671 2.335,0.826 4.104,1.984 5.308,3.475 1.203,1.491 2.918,4.679 5.146,9.565 l 7.598,16.65 c 2.802,6.108 4.679,10.678 5.631,13.715 0.951,3.034 1.446,6.008 1.482,8.918 0.035,3.089 0.224,5.235 0.566,6.439 0.341,1.203 1.105,2.379 2.29,3.529 2.479,2.514 5.639,3.772 9.484,3.772 3.628,0 7.094,-1.419 10.399,-4.256 4.599,-3.88 11.281,-15.179 20.046,-33.895" /></g><g
           transform="translate(331.7729,189.4492)"
           id="g64"><path
             id="path66"
             style="fill:#ffffff;fill-opacity:1;fill-rule:nonzero;stroke:none"
             d="m 0,0 c 5.203,0.657 10.373,0.15 15.508,-1.518 2.415,-0.781 4.07,-1.115 4.961,-1.003 0.641,0.082 1.655,0.373 3.04,0.873 0.449,0.166 0.959,0.284 1.53,0.356 1.852,0.234 3.583,-0.416 5.189,-1.952 3.943,-3.702 6.302,-8.619 7.076,-14.748 0.545,-4.313 -0.536,-7.654 -3.242,-10.023 -1.469,-1.272 -3.201,-2.034 -5.197,-2.286 -1.818,-0.229 -3.346,-0.024 -4.586,0.616 -1.24,0.639 -2.52,1.89 -3.841,3.751 -1.888,2.622 -3.391,4.488 -4.508,5.596 -1.118,1.108 -2.435,2.073 -3.951,2.896 -3.763,1.986 -7.534,2.741 -11.312,2.264 -3.671,-0.464 -6.417,-2.159 -8.238,-5.087 -1.821,-2.927 -2.45,-6.618 -1.887,-11.073 0.774,-6.131 3.034,-11.548 6.778,-16.253 5.064,-6.277 11.518,-8.92 19.359,-7.93 2.887,0.365 5.686,1.208 8.399,2.528 2.711,1.32 4.754,2.845 6.129,4.576 1.192,1.454 2.216,2.235 3.072,2.343 1.247,0.157 2.389,-0.287 3.427,-1.332 1.037,-1.047 1.659,-2.39 1.866,-4.029 0.261,-2.067 -0.07,-4.462 -0.993,-7.186 -0.924,-2.724 -2.167,-4.926 -3.728,-6.608 -0.672,-0.701 -2.155,-1.431 -4.449,-2.191 -1.323,-0.421 -3.039,-1.308 -5.15,-2.66 -4.955,-3.196 -10.284,-5.155 -15.986,-5.875 -5.953,-0.752 -12.056,-0.165 -18.309,1.762 -7.27,2.231 -13.307,6.303 -18.108,12.214 -4.709,5.742 -7.492,12.016 -8.352,18.824 -0.999,7.912 0.549,15.44 4.644,22.584 3.561,6.207 8.591,11.241 15.092,15.104 C -10.815,-2.525 -5.56,-0.702 0,0" /></g><g
           transform="translate(407.3257,156.3095)"
           id="g68"><path
             id="path70"
             style="fill:#ffffff;fill-opacity:1;fill-rule:nonzero;stroke:none"
             d="m 0,0 -0.593,-12.556 v -0.485 c 0,-1.292 0.189,-2.155 0.566,-2.586 0.377,-0.431 1.14,-0.646 2.29,-0.646 3.16,0 5.46,0.816 6.897,2.451 1.437,1.634 2.156,4.248 2.156,7.841 0,6.932 -2.461,10.399 -7.382,10.399 C 2.532,4.418 1.544,4.095 0.97,3.449 0.395,2.802 0.071,1.652 0,0 m 3.125,-27.481 c -1.366,0 -2.236,-0.415 -2.614,-1.24 -0.376,-0.827 -0.565,-2.749 -0.565,-5.766 0,-4.563 0.287,-8.118 0.862,-10.669 0.179,-0.719 0.449,-1.276 0.808,-1.671 0.359,-0.396 1.042,-0.881 2.048,-1.454 2.155,-1.186 3.233,-2.749 3.233,-4.689 0,-2.371 -1.5,-4.051 -4.499,-5.038 -3.001,-0.987 -8.075,-1.482 -15.223,-1.482 -13.292,0 -19.938,2.514 -19.938,7.544 0,0.862 0.197,1.553 0.593,2.075 0.395,0.52 1.294,1.247 2.694,2.183 1.581,1.041 2.649,2.271 3.207,3.69 0.556,1.419 0.942,3.871 1.158,7.355 0.179,2.551 0.27,11.694 0.27,27.429 0,4.992 -0.252,8.387 -0.755,10.184 -0.504,1.796 -1.581,3.107 -3.233,3.933 -1.582,0.755 -2.64,1.446 -3.179,2.075 -0.539,0.628 -0.808,1.446 -0.808,2.452 0,1.328 0.511,2.487 1.535,3.475 1.024,0.988 2.452,1.716 4.284,2.183 1.544,0.395 3.664,0.593 6.358,0.593 1.186,0 4.15,-0.181 8.892,-0.539 0.897,-0.073 2.317,-0.108 4.257,-0.108 3.233,0 7.544,0.216 12.932,0.647 3.413,0.25 5.801,0.377 7.167,0.377 7.687,0 14.046,-1.851 19.075,-5.55 4.526,-3.341 6.79,-7.975 6.79,-13.903 0,-3.306 -0.79,-6.314 -2.37,-9.026 -1.582,-2.712 -3.755,-4.751 -6.521,-6.116 -1.15,-0.574 -1.724,-1.258 -1.724,-2.047 0,-1.043 0.88,-1.887 2.641,-2.533 3.771,-1.365 6.537,-3.431 8.297,-6.196 1.76,-2.768 3.018,-7.006 3.773,-12.718 0.322,-2.371 0.789,-3.907 1.4,-4.607 0.611,-0.701 2.03,-1.375 4.256,-2.021 0.683,-0.215 1.258,-0.673 1.725,-1.374 0.466,-0.7 0.701,-1.482 0.701,-2.344 0,-1.114 -0.431,-2.236 -1.293,-3.368 -0.862,-1.131 -1.976,-2.021 -3.341,-2.667 -3.018,-1.401 -7.149,-2.102 -12.394,-2.102 -7.004,0 -12.016,1.851 -15.034,5.55 -1.365,1.652 -2.524,3.736 -3.475,6.251 -0.953,2.514 -2.075,6.431 -3.368,11.747 -0.827,3.413 -1.878,5.82 -3.153,7.221 -1.275,1.401 -3.098,2.155 -5.469,2.264" /></g><g
           transform="translate(486.7295,188.6157)"
           id="g72"><path
             id="path74"
             style="fill:#ffffff;fill-opacity:1;fill-rule:nonzero;stroke:none"
             d="m 0,0 c 4.072,-0.435 7.873,-1.202 11.405,-2.302 4.755,-1.483 6.965,-3.797 6.629,-6.94 -0.11,-1.036 -0.434,-1.787 -0.972,-2.253 -0.537,-0.467 -1.842,-1.096 -3.913,-1.885 -1.731,-0.647 -3.004,-2.335 -3.82,-5.066 -0.815,-2.731 -1.654,-8.134 -2.516,-16.205 -1.458,-13.646 -2.02,-22.131 -1.688,-25.453 0.139,-1.063 0.438,-1.898 0.897,-2.507 0.458,-0.61 1.297,-1.305 2.515,-2.085 2.242,-1.323 3.255,-3.003 3.037,-5.039 -0.304,-2.858 -2.693,-4.589 -7.165,-5.195 -4.838,-0.64 -10.668,-0.595 -17.49,0.134 -11.646,1.243 -17.231,4.079 -16.758,8.508 0.171,1.608 1.474,2.986 3.909,4.135 1.866,0.885 3.058,2.238 3.577,4.062 1.114,4 2.377,12.608 3.789,25.824 0.976,9.144 1.136,15.053 0.482,17.724 -0.344,1.518 -1.399,2.967 -3.166,4.348 -1.361,1.121 -2.258,2.029 -2.689,2.726 -0.432,0.697 -0.594,1.545 -0.488,2.545 0.164,1.535 1.036,2.68 2.616,3.432 1.58,0.753 4.284,1.285 8.11,1.6 C -9.139,0.524 -4.572,0.488 0,0" /></g><g
           transform="translate(566.6484,135.6591)"
           id="g76"><path
             id="path78"
             style="fill:#ffffff;fill-opacity:1;fill-rule:nonzero;stroke:none"
             d="m 0,0 -6.467,-14.495 c -1.114,-2.444 -2.012,-4.087 -2.694,-4.932 -0.683,-0.844 -1.438,-1.265 -2.263,-1.265 -0.791,0 -1.491,0.34 -2.102,1.023 -0.396,0.432 -1.302,2.012 -2.721,4.742 -1.419,2.73 -2.596,5.155 -3.529,7.275 L -26.89,8.352 c -0.968,2.227 -1.993,3.341 -3.071,3.341 -1.149,0 -1.777,-0.952 -1.887,-2.856 -0.251,-4.239 -0.376,-8.155 -0.376,-11.747 0,-3.736 0.179,-6.27 0.538,-7.598 0.252,-0.791 0.584,-1.366 0.998,-1.724 0.413,-0.36 1.536,-1.006 3.367,-1.94 1.186,-0.612 1.779,-1.671 1.779,-3.18 0,-4.023 -5.155,-6.035 -15.465,-6.035 -8.694,0 -13.041,1.958 -13.041,5.873 0,1.006 0.224,1.734 0.674,2.183 0.448,0.449 1.607,1.123 3.476,2.02 1.185,0.54 1.984,1.276 2.398,2.21 0.412,0.934 0.763,2.748 1.05,5.443 0.324,2.874 0.628,7.589 0.917,14.144 0.287,6.556 0.43,12.17 0.43,16.84 0,5.855 -0.449,9.825 -1.347,11.908 -0.323,0.719 -0.693,1.258 -1.105,1.617 -0.413,0.358 -1.194,0.826 -2.343,1.401 -2.551,1.221 -3.826,2.802 -3.826,4.742 0,1.257 0.475,2.406 1.427,3.449 0.951,1.041 2.219,1.778 3.8,2.209 1.58,0.467 3.691,0.871 6.331,1.213 2.641,0.341 4.877,0.511 6.709,0.511 4.598,0 7.849,-0.376 9.754,-1.131 0.933,-0.36 1.67,-0.845 2.209,-1.455 0.538,-0.611 1.31,-1.868 2.317,-3.772 L -9.969,25.38 c 1.221,-2.263 2.065,-3.647 2.532,-4.15 0.467,-0.503 1.114,-0.754 1.94,-0.754 0.719,0 1.355,0.27 1.913,0.809 0.557,0.538 1.213,1.544 1.967,3.017 l 7.598,14.819 c 0.934,1.903 1.544,3.143 1.831,3.718 1.76,3.591 3.503,5.981 5.228,7.166 2.191,1.544 6.179,2.318 11.963,2.318 10.166,0 15.25,-2.318 15.25,-6.951 0,-1.043 -0.199,-1.878 -0.594,-2.507 C 39.264,42.237 38.455,41.473 37.235,40.576 35.582,39.317 34.54,37.504 34.108,35.133 33.282,30.176 32.87,24.141 32.87,17.027 c 0,-9.16 0.431,-17.189 1.293,-24.087 0.216,-1.688 0.548,-2.837 0.997,-3.448 0.449,-0.611 1.608,-1.527 3.475,-2.748 1.294,-0.862 1.94,-2.013 1.94,-3.449 0,-2.515 -1.67,-4.293 -5.011,-5.335 -1.724,-0.573 -3.539,-0.951 -5.442,-1.131 -1.905,-0.18 -4.833,-0.269 -8.784,-0.269 -6.071,0 -10.598,0.43 -13.579,1.293 -3.305,0.969 -4.957,2.622 -4.957,4.958 0,0.861 0.216,1.57 0.646,2.127 0.432,0.557 1.545,1.572 3.341,3.045 0.934,0.754 1.571,2.209 1.913,4.365 0.341,2.155 0.513,5.82 0.513,10.993 C 9.215,6.214 9.079,8.1 8.81,8.999 8.541,9.896 7.975,10.346 7.112,10.346 6.106,10.346 5.136,9.654 4.203,8.271 3.269,6.888 1.867,4.13 0,0" /></g><g
           transform="translate(634.1699,124.9423)"
           id="g80"><path
             id="path82"
             style="fill:#ffffff;fill-opacity:1;fill-rule:nonzero;stroke:none"
             d="m 0,0 10.483,1.286 c 1.925,0.235 2.835,0.781 2.731,1.638 -0.145,1.177 -1.836,3.9 -5.075,8.172 C 6.669,13.051 5.569,14.345 4.84,14.98 4.11,15.614 3.39,15.888 2.677,15.801 1.394,15.643 0.47,14.316 -0.093,11.823 -0.196,11.485 -0.559,10.155 -1.179,7.836 -2.229,4.015 -2.712,1.748 -2.624,1.035 -2.515,0.144 -1.641,-0.201 0,0 M 36.398,11.306 49.165,-9.116 c 1.207,-1.879 2.17,-3.091 2.889,-3.636 0.717,-0.546 1.75,-0.844 3.095,-0.895 2.617,-0.079 4.059,-1.222 4.33,-3.433 0.32,-2.603 -1.02,-4.667 -4.017,-6.193 -2.998,-1.526 -8.063,-2.727 -15.193,-3.601 -8.06,-0.989 -14.074,-1.382 -18.043,-1.182 -1.823,0.102 -3.32,0.578 -4.492,1.431 -1.172,0.851 -1.842,1.973 -2.013,3.363 -0.131,1.07 0.042,1.933 0.523,2.588 0.481,0.656 1.44,1.325 2.875,2.009 1.606,0.775 2.326,1.841 2.16,3.196 -0.293,2.389 -1.91,3.621 -4.85,3.695 -3.156,0.046 -7.55,-0.275 -13.184,-0.966 -4.742,-0.582 -7.542,-1.216 -8.398,-1.899 -0.528,-0.426 -0.948,-1.13 -1.262,-2.109 -0.314,-0.981 -0.418,-1.898 -0.314,-2.753 0.097,-0.785 0.311,-1.274 0.642,-1.469 0.331,-0.195 1.368,-0.457 3.109,-0.786 2.254,-0.375 3.499,-1.524 3.736,-3.45 0.52,-4.244 -4.301,-6.988 -14.463,-8.234 -5.776,-0.709 -10.067,-0.837 -12.873,-0.385 -2.589,0.442 -4.037,1.929 -4.348,4.461 -0.136,1.104 0.034,1.994 0.514,2.669 0.478,0.674 1.4,1.347 2.765,2.022 2.217,1.104 3.832,2.469 4.845,4.096 1.013,1.626 2.326,4.999 3.944,10.12 l 5.513,17.452 c 2.038,6.402 3.345,11.168 3.92,14.297 0.574,3.129 0.702,6.14 0.385,9.032 -0.341,3.071 -0.415,5.224 -0.223,6.461 0.193,1.236 0.808,2.496 1.843,3.782 2.155,2.797 5.139,4.431 8.954,4.898 3.602,0.442 7.215,-0.545 10.842,-2.959 5.035,-3.291 13.043,-13.691 24.022,-31.2" /></g></g></g></g></svg>